<svg height="512pt" viewBox="-2 0 512 512.001" width="512pt" xmlns="http://www.w3.org/2000/svg"><path d="m494.214844 434.28125h-431.066406c-7.214844 0-13.0625-5.847656-13.0625-13.0625v-86.726562c0-7.214844 5.847656-13.0625 13.0625-13.0625h431.0625c7.214843 0 13.066406 5.847656 13.066406 13.0625v86.726562c0 7.214844-5.851563 13.0625-13.0625 13.0625zm0 0" fill="#005ca0"/><path d="m431.445312 321.429688h-412.9375c-10.222656 0-18.507812-8.285157-18.507812-18.507813v-19.230469c0-10.222656 8.285156-18.507812 18.507812-18.507812h412.9375c10.21875 0 18.503907 8.285156 18.503907 18.507812v19.230469c0 10.222656-8.285157 18.507813-18.503907 18.507813zm0 0" fill="#32e4ff"/><path d="m434.972656 265.53125v14.46875c0 10.21875-8.285156 18.503906-18.503906 18.503906h-412.9375c-1.207031 0-2.386719-.121094-3.53125-.34375v4.765625c0 10.21875 8.285156 18.503907 18.507812 18.503907h412.9375c10.21875 0 18.503907-8.285157 18.503907-18.503907v-19.234375c0-9.011718-6.445313-16.511718-14.976563-18.160156zm0 0" fill="#1dc2ff"/><path d="m455.691406 512h-369.449218c-6.011719 0-10.886719-4.875-10.886719-10.886719v-55.945312c0-6.011719 4.875-10.886719 10.886719-10.886719h369.449218c6.011719 0 10.882813 4.875 10.882813 10.886719v55.945312c0 6.011719-4.871094 10.886719-10.882813 10.886719zm0 0" fill="#1dc2ff"/><path d="m494.214844 321.429688h-5.488282v72.152343c0 7.214844-5.847656 13.0625-13.0625 13.0625h-425.578124v14.574219c0 7.214844 5.847656 13.0625 13.0625 13.0625h431.0625c7.214843 0 13.066406-5.851562 13.066406-13.0625v-86.726562c0-7.214844-5.851563-13.0625-13.0625-13.0625zm0 0" fill="#005182"/><path d="m455.691406 434.28125h-6.761718v36.0625c0 6.011719-4.871094 10.886719-10.882813 10.886719h-362.6875v19.882812c0 6.015625 4.871094 10.886719 10.882813 10.886719h369.449218c6.011719 0 10.886719-4.871094 10.886719-10.886719v-55.945312c-.003906-6.011719-4.875-10.886719-10.886719-10.886719zm0 0" fill="#00a2ff"/><path d="m452.59375 250.625h-369.949219c-3.3125 0-6-2.6875-6-6v-224.0625c0-3.316406 2.6875-6 6-6h369.949219c3.3125 0 6 2.683594 6 6v224.0625c0 3.3125-2.6875 6-6 6zm0 0" fill="#ffded5"/><path d="m402.003906 14.5625v190.652344c0 3.3125-2.683594 6-6 6h-319.359375v33.410156c0 3.3125 2.6875 6 6 6h369.949219c3.3125 0 6-2.6875 6-6v-224.0625c0-3.316406-2.6875-6-6-6zm0 0" fill="#f7c6ba"/><path d="m455.476562 265.183594h-375.714843c-9.761719 0-17.675781-7.914063-17.675781-17.675782v-229.828124c0-9.765626 7.914062-17.679688 17.675781-17.679688h375.714843c9.765626 0 17.679688 7.914062 17.679688 17.679688v229.828124c0 9.761719-7.914062 17.675782-17.679688 17.675782zm-358.03125-29.121094h340.347657c3.445312 0 6.238281-2.792969 6.238281-6.238281v-194.464844c0-3.445313-2.792969-6.238281-6.238281-6.238281h-340.347657c-3.445312 0-6.238281 2.792968-6.238281 6.238281v194.464844c0 3.445312 2.792969 6.238281 6.238281 6.238281zm0 0" fill="#ff6914"/><path d="m459.152344.386719c.003906.15625.019531.308593.019531.464843v229.832032c0 9.761718-7.914063 17.675781-17.675781 17.675781h-375.714844c-1.261719 0-2.488281-.136719-3.671875-.386719.246094 9.546875 8.046875 17.214844 17.652344 17.214844h375.714843c9.761719 0 17.679688-7.917969 17.679688-17.679688v-229.828124c0-8.503907-6.007812-15.601563-14.003906-17.292969zm0 0" fill="#ed500a"/><g fill="#ff6914"><path d="m326.105469 83.683594h-206.898438c-4.261719 0-7.71875-3.457032-7.71875-7.71875 0-4.265625 3.457031-7.722656 7.71875-7.722656h206.898438c4.261719 0 7.71875 3.457031 7.71875 7.722656 0 4.261718-3.453125 7.71875-7.71875 7.71875zm0 0"/><path d="m149.652344 118.515625h-30.445313c-4.261719 0-7.71875-3.457031-7.71875-7.71875 0-4.265625 3.457031-7.722656 7.71875-7.722656h30.445313c4.261718 0 7.71875 3.457031 7.71875 7.722656 0 4.261719-3.457032 7.71875-7.71875 7.71875zm0 0"/><path d="m282.753906 118.515625h-96.707031c-4.261719 0-7.71875-3.457031-7.71875-7.71875 0-4.265625 3.457031-7.722656 7.71875-7.722656h96.707031c4.261719 0 7.71875 3.457031 7.71875 7.722656 0 4.261719-3.457031 7.71875-7.71875 7.71875zm0 0"/><path d="m190.894531 195.460938h-71.6875c-4.261719 0-7.71875-3.457032-7.71875-7.71875 0-4.265626 3.457031-7.71875 7.71875-7.71875h71.6875c4.261719 0 7.71875 3.453124 7.71875 7.71875 0 4.261718-3.457031 7.71875-7.71875 7.71875zm0 0"/></g><path d="m433.582031 360.054688-22.105469-4.695313-15.179687 16.742187c-3.410156 3.757813-9.613281 2.421876-11.171875-2.40625l-50.023438-154.855468 56.105469-18.125 50.027344 154.855468c1.558594 4.828126-2.6875 9.539063-7.652344 8.484376zm0 0" fill="#ed500a"/><path d="m363.511719 205.660156-28.410157 9.179688 50.023438 154.855468c1.558594 4.832032 7.761719 6.164063 11.171875 2.40625l15.179687-16.742187.425782.089844zm0 0" fill="#ff6914"/><path d="m267.367188 360.054688 22.105468-4.695313 15.179688 16.742187c3.410156 3.757813 9.609375 2.425782 11.171875-2.40625l50.023437-154.855468-56.105468-18.125-50.027344 154.855468c-1.558594 4.828126 2.6875 9.539063 7.652344 8.484376zm0 0" fill="#ff6914"/><path d="m337.433594 205.660156 28.414062 9.179688-50.023437 154.855468c-1.5625 4.832032-7.761719 6.164063-11.171875 2.40625l-15.179688-16.742187-.425781.089844zm0 0" fill="#ed500a"/><path d="m360.976562 114.761719c10.308594-9.523438 26.953126-1.507813 25.933594 12.492187-.585937 8.050782 5.113282 15.199219 13.09375 16.417969 13.875 2.121094 17.988282 20.132813 6.40625 28.0625-6.660156 4.5625-8.695312 13.476563-4.675781 20.476563 6.992187 12.167968-4.523437 26.613281-17.945313 22.503906-7.71875-2.363282-15.960937 1.605468-18.921874 9.113281-5.15625 13.054687-23.632813 13.054687-28.785157 0-2.964843-7.507813-11.203125-11.476563-18.921875-9.113281-13.421875 4.109375-24.941406-10.335938-17.949218-22.503906 4.023437-7 1.988281-15.914063-4.671876-20.476563-11.582031-7.929687-7.46875-25.941406 6.402344-28.0625 7.980469-1.21875 13.683594-8.367187 13.097656-16.417969-1.023437-14 15.625-22.015625 25.933594-12.492187 5.929688 5.480469 15.074219 5.480469 21.003906 0zm0 0" fill="#d63b00"/><path d="m400.003906 143.671875c-7.980468-1.21875-13.679687-8.367187-13.09375-16.421875 1.019532-13.996094-15.625-22.015625-25.933594-12.488281-.816406.753906-1.699218 1.394531-2.625 1.941406 4.328126 1.898437 7.570313 6.253906 7.160157 11.851563-.453125 6.234374 3.960937 11.773437 10.144531 12.71875 10.746094 1.640624 13.933594 15.59375 4.960938 21.738281-5.160157 3.535156-6.734376 10.441406-3.621094 15.859375 5.417968 9.429687-3.503906 20.617187-13.902344 17.433594-5.976562-1.832032-12.359375 1.242187-14.65625 7.058593-3.992188 10.113281-18.304688 10.113281-22.296875 0-2.296875-5.816406-8.679687-8.890625-14.65625-7.058593-5 1.53125-9.652344-.265626-12.539063-3.585938-6.394531 12.058594 4.980469 26.050781 18.214844 21.996094 7.71875-2.363282 15.957032 1.601562 18.921875 9.113281 5.15625 13.054687 23.628907 13.054687 28.785157 0 2.964843-7.511719 11.203124-11.476563 18.921874-9.113281 13.421876 4.109375 24.941407-10.335938 17.949219-22.503906-4.023437-7-1.988281-15.914063 4.671875-20.476563 11.582032-7.929687 7.46875-25.941406-6.40625-28.0625zm0 0" fill="#c72500"/><path d="m119.207031 413.171875c-4.261719 0-7.71875-3.457031-7.71875-7.71875v-55.234375c0-4.261719 3.457031-7.71875 7.71875-7.71875 4.265625 0 7.71875 3.457031 7.71875 7.71875v55.234375c.003907 4.261719-3.453125 7.71875-7.71875 7.71875zm0 0" fill="#0882bf"/><path d="m143.878906 413.171875c-4.265625 0-7.71875-3.457031-7.71875-7.71875v-55.234375c0-4.261719 3.453125-7.71875 7.71875-7.71875 4.261719 0 7.71875 3.457031 7.71875 7.71875v55.234375c0 4.261719-3.457031 7.71875-7.71875 7.71875zm0 0" fill="#0882bf"/><path d="m168.546875 413.171875c-4.261719 0-7.71875-3.457031-7.71875-7.71875v-55.234375c0-4.261719 3.457031-7.71875 7.71875-7.71875s7.71875 3.457031 7.71875 7.71875v55.234375c0 4.261719-3.457031 7.71875-7.71875 7.71875zm0 0" fill="#0882bf"/></svg>