<svg height="512pt" viewBox="0 0 512.00039 512" width="512pt" xmlns="http://www.w3.org/2000/svg"><path d="m33.671875 0c-18.601563 0-33.671875 15.070312-33.671875 33.671875v59.003906h67.339844v-59.003906c0-18.601563-15.078125-33.671875-33.667969-33.671875zm0 0" fill="#edd4c2"/><path d="m409.851562 0h-376.1875c18.601563 0 33.671876 15.074219 33.671876 33.671875v478.328125h376.1875v-478.328125c0-18.597656-15.085938-33.671875-33.671876-33.671875zm0 0" fill="#ffefe4"/><path d="m67.335938 492h376.1875v20h-376.1875zm0 0" fill="#edd4c2"/><path d="m409.851562 0h-376.1875c13.730469 0 25.53125 8.21875 30.773438 20h345.414062c18.585938 0 33.671876 15.074219 33.671876 33.671875v-20c0-18.597656-15.085938-33.671875-33.671876-33.671875zm0 0" fill="#fff7f2"/><path d="m512 454.984375h-45.273438v-314.058594h45.273438zm0 0" fill="#ff8354"/><path d="m512 466.652344h-45.273438v-11.664063h45.273438zm0 0" fill="#ffefe4"/><path d="m466.726562 466.648438h45.273438v22.714843c0 12.503907-10.132812 22.636719-22.636719 22.636719-12.5 0-22.636719-10.132812-22.636719-22.636719zm0 0" fill="#6770e6"/><path d="m489.363281 492c-12.5 0-22.636719-10.132812-22.636719-22.636719v20c0 12.503907 10.136719 22.636719 22.636719 22.636719 12.503907 0 22.636719-10.132812 22.636719-22.636719v-20c0 12.503907-10.132812 22.636719-22.636719 22.636719zm0 0" fill="#5861c7"/><path d="m466.726562 140.90625 20.964844-58.492188c.5625-1.570312 2.78125-1.570312 3.34375 0l20.964844 58.492188zm0 0" fill="#edd4c2"/><path d="m478.042969 109.328125h22.636719l-9.644532-26.914063c-.5625-1.570312-2.785156-1.570312-3.347656 0zm0 0" fill="#5861c7"/><path d="m478.042969 109.328125h22.636719l-9.644532-26.914063c-.5625-1.570312-2.785156-1.570312-3.347656 0zm0 0" fill="#5861c7"/><path d="m486.882812 92.414062c.835938-1.570312 4.125-1.570312 4.957032 0l8.558594 16.121094-9.363282-26.121094c-.5625-1.570312-2.78125-1.570312-3.34375 0l-9.359375 26.113282zm0 0" fill="#8f95e6"/><g fill="#6770e6"><path d="m374.832031 203.375h-198.804687c-5.078125 0-9.199219-4.117188-9.199219-9.195312 0-5.082032 4.121094-9.199219 9.199219-9.199219h198.800781c5.082031 0 9.199219 4.117187 9.199219 9.199219.003906 5.078124-4.117188 9.195312-9.195313 9.195312zm0 0"/><path d="m374.832031 251.578125h-198.804687c-5.078125 0-9.199219-4.117187-9.199219-9.199219 0-5.078125 4.121094-9.195312 9.199219-9.195312h198.800781c5.082031 0 9.199219 4.117187 9.199219 9.195312.003906 5.082032-4.117188 9.199219-9.195313 9.199219zm0 0"/><path d="m374.832031 299.78125h-198.804687c-5.078125 0-9.199219-4.117188-9.199219-9.199219 0-5.078125 4.121094-9.199219 9.199219-9.199219h198.800781c5.082031 0 9.199219 4.121094 9.199219 9.199219.003906 5.082031-4.117188 9.199219-9.195313 9.199219zm0 0"/><path d="m374.832031 347.980469h-198.804687c-5.078125 0-9.199219-4.117188-9.199219-9.195313 0-5.082031 4.121094-9.199218 9.199219-9.199218h198.800781c5.082031 0 9.199219 4.117187 9.199219 9.199218.003906 5.078125-4.117188 9.195313-9.195313 9.195313zm0 0"/><path d="m145.230469 194.175781c0 5.082031-4.121094 9.199219-9.199219 9.199219-5.082031 0-9.203125-4.117188-9.203125-9.199219s4.121094-9.199219 9.203125-9.199219c5.078125 0 9.199219 4.117188 9.199219 9.199219zm0 0"/><path d="m145.230469 242.378906c0 5.082032-4.121094 9.203125-9.199219 9.203125-5.082031 0-9.203125-4.121093-9.203125-9.203125 0-5.078125 4.121094-9.199218 9.203125-9.199218 5.078125 0 9.199219 4.121093 9.199219 9.199218zm0 0"/><path d="m145.230469 290.582031c0 5.082031-4.121094 9.199219-9.199219 9.199219-5.082031 0-9.203125-4.117188-9.203125-9.199219s4.121094-9.199219 9.203125-9.199219c5.078125 0 9.199219 4.117188 9.199219 9.199219zm0 0"/><path d="m145.230469 338.785156c0 5.078125-4.121094 9.199219-9.199219 9.199219-5.082031 0-9.203125-4.121094-9.203125-9.199219 0-5.082031 4.121094-9.199218 9.203125-9.199218 5.078125 0 9.199219 4.117187 9.199219 9.199218zm0 0"/><path d="m165.214844 128.003906v-62.96875h-16.347656c-4.246094 0-7.691407-3.441406-7.691407-7.691406 0-4.246094 3.445313-7.691406 7.691407-7.691406h48.910156c4.25 0 7.691406 3.445312 7.691406 7.691406 0 4.25-3.441406 7.691406-7.691406 7.691406h-16.347656v62.96875c0 4.25-3.445313 7.691406-7.691407 7.691406h-.832031c-4.246094 0-7.691406-3.441406-7.691406-7.691406zm0 0"/><path d="m276.644531 118.035156 4.234375 5.078125c2.609375 3.132813 2.089844 7.804688-1.144531 10.285157-3.066406 2.359374-7.445313 1.859374-9.90625-1.125l-1.839844-2.230469c-5.691406 5.058593-12.535156 7.582031-20.546875 7.582031-4.488281 0-8.671875-.746094-12.558594-2.230469-3.890624-1.476562-7.273437-3.558593-10.152343-6.25-2.882813-2.679687-5.152344-5.867187-6.796875-9.554687-1.644532-3.679688-2.464844-7.726563-2.464844-12.136719 0-4.804687 1.183594-9.371094 3.550781-13.703125 2.355469-4.320312 5.664063-8.011719 9.917969-11.050781-1.527344-2.085938-2.769531-4.246094-3.726562-6.496094-.96875-2.238281-1.449219-4.605469-1.449219-7.089844 0-2.964843.546875-5.738281 1.625-8.351562 1.085937-2.601563 2.621093-4.859375 4.625-6.789063 2.003906-1.914062 4.371093-3.441406 7.089843-4.566406 2.726563-1.113281 5.734376-1.683594 9.019532-1.683594 5.769531 0 10.394531 1.339844 13.875 4.03125.960937.738282 1.84375 1.527344 2.652344 2.371094 3.296874 3.433594 2.453124 9.050781-1.753907 11.273438l-.753906.398437c-2.589844 1.371094-5.648437.609375-7.664063-1.515625-1.996093-2.097656-4.625-2.738281-6.125-2.738281-2.316406 0-4.164062.683593-5.527343 2.042969-1.359375 1.371093-2.042969 3.089843-2.042969 5.175781 0 1.28125.285156 2.453125.84375 3.539062.558594 1.085938 1.320312 2.21875 2.285156 3.421875l25.839844 31.492188 3.539062-5.761719c1.953126-3.179687 6.132813-4.148437 9.285157-2.15625 3.136719 1.980469 4.066406 6.125 2.082031 9.253906zm-28.480469 5.40625c4.480469 0 8.167969-1.328125 11.054688-3.96875l-21.75-26.320312c-2.242188 1.683594-3.960938 3.746094-5.164062 6.191406-1.203126 2.445312-1.8125 4.949219-1.8125 7.511719 0 2.566406.488281 4.871093 1.449218 6.90625.957032 2.042969 2.261719 3.792969 3.902344 5.230469 1.644531 1.4375 3.53125 2.542968 5.652344 3.304687 2.121094.765625 4.34375 1.144531 6.667968 1.144531zm0 0"/><path d="m367.214844 116.265625c3.523437 3.339844 3.21875 8.992187-.566406 12.027344-2.628907 2.109375-5.472657 3.878906-8.53125 5.300781-5.769532 2.679688-12.21875 4.027344-19.34375 4.027344-6.417969 0-12.363282-1.164063-17.847657-3.492188-5.488281-2.316406-10.242187-5.484375-14.242187-9.484375-4.007813-4.011719-7.167969-8.753906-9.496094-14.25-2.328125-5.488281-3.480469-11.394531-3.480469-17.722656s1.152344-12.234375 3.480469-17.730469c2.328125-5.488281 5.488281-10.230468 9.496094-14.242187 4-4 8.753906-7.167969 14.242187-9.484375 5.484375-2.328125 11.429688-3.492188 17.847657-3.492188 6.882812 0 12.957031 1.203125 18.199218 3.609375 2.78125 1.273438 5.394532 2.847657 7.847656 4.722657 3.566407 2.730468 3.738282 8.070312.515626 11.191406l-.6875.664062c-2.699219 2.613282-6.855469 2.722656-9.847657.449219-1.289062-.980469-2.648437-1.851563-4.078125-2.613281-3.324218-1.761719-7.265625-2.640625-11.832031-2.640625-4.011719 0-7.777344.703125-11.296875 2.101562-3.53125 1.410157-6.589844 3.386719-9.195312 5.945313-2.601563 2.574218-4.664063 5.675781-6.1875 9.320312-1.527344 3.648438-2.277344 7.707032-2.277344 12.199219 0 4.488281.753906 8.546875 2.277344 12.195313 1.523437 3.648437 3.589843 6.746093 6.1875 9.308593 2.605468 2.574219 5.664062 4.546875 9.195312 5.957031 3.519531 1.398438 7.285156 2.101563 11.296875 2.101563 4.800781 0 9.074219-.976563 12.800781-2.945313 1.75-.921874 3.40625-2.023437 4.964844-3.308593 3.121094-2.5625 7.628906-2.492188 10.558594.285156zm0 0"/></g><path d="m182.992188 454.984375h-48.09375c-4.453126 0-8.066407-3.613281-8.066407-8.066406v-48.097657c0-4.457031 3.613281-8.066406 8.066407-8.066406h48.097656c4.457031 0 8.066406 3.609375 8.066406 8.066406v48.097657c0 4.453125-3.613281 8.066406-8.070312 8.066406zm0 0" fill="#edd4c2"/><path d="m155.273438 441.023438c-1.671876 0-3.359376-.546876-4.769532-1.660157l-9.488281-7.503906c-3.332031-2.636719-3.898437-7.476563-1.261719-10.8125 2.632813-3.332031 7.476563-3.898437 10.808594-1.261719l3.539062 2.796875 14.628907-17.953125c2.683593-3.292968 7.535156-3.789062 10.828125-1.105468 3.296875 2.6875 3.792968 7.535156 1.105468 10.832031l-19.417968 23.832031c-1.519532 1.863281-3.734375 2.835938-5.972656 2.835938zm0 0" fill="#6770e6"/><path d="m374.832031 432.066406h-144.570312c-5.078125 0-9.199219-4.117187-9.199219-9.199218 0-5.078126 4.121094-9.195313 9.199219-9.195313h144.570312c5.078125 0 9.199219 4.117187 9.199219 9.195313 0 5.082031-4.121094 9.199218-9.199219 9.199218zm0 0" fill="#6770e6"/></svg>